<mxfile host="app.diagrams.net" modified="2021-06-17T20:22:35.558Z" agent="5.0 (Windows)" etag="lJdXcGKh7DXE3ajxX1XJ" version="14.8.0" type="github">
  <diagram id="bZYAe5nOx9fWxw8mph4Q" name="Page-1">
    <mxGraphModel dx="1038" dy="513" grid="1" gridSize="10" guides="1" tooltips="1" connect="1" arrows="1" fold="1" page="1" pageScale="1" pageWidth="827" pageHeight="1169" math="0" shadow="0">
      <root>
        <mxCell id="0" />
        <mxCell id="1" parent="0" />
        <mxCell id="GIKU6uKg89mEXkMf3qlI-1" value="&lt;font style=&quot;font-size: 17px&quot;&gt;Thorp Example single round 6 elements.&lt;/font&gt;" style="text;html=1;align=center;verticalAlign=middle;resizable=0;points=[];autosize=1;strokeColor=none;" vertex="1" parent="1">
          <mxGeometry x="160" y="90" width="320" height="20" as="geometry" />
        </mxCell>
        <mxCell id="GIKU6uKg89mEXkMf3qlI-2" value="a" style="text;html=1;strokeColor=none;fillColor=none;align=center;verticalAlign=middle;whiteSpace=wrap;rounded=0;" vertex="1" parent="1">
          <mxGeometry x="170" y="140" width="40" height="20" as="geometry" />
        </mxCell>
        <mxCell id="GIKU6uKg89mEXkMf3qlI-3" value="b" style="text;html=1;strokeColor=none;fillColor=none;align=center;verticalAlign=middle;whiteSpace=wrap;rounded=0;" vertex="1" parent="1">
          <mxGeometry x="222" y="140" width="40" height="20" as="geometry" />
        </mxCell>
        <mxCell id="GIKU6uKg89mEXkMf3qlI-4" value="c" style="text;html=1;strokeColor=none;fillColor=none;align=center;verticalAlign=middle;whiteSpace=wrap;rounded=0;" vertex="1" parent="1">
          <mxGeometry x="274" y="140" width="40" height="20" as="geometry" />
        </mxCell>
        <mxCell id="GIKU6uKg89mEXkMf3qlI-5" value="d" style="text;html=1;strokeColor=none;fillColor=none;align=center;verticalAlign=middle;whiteSpace=wrap;rounded=0;" vertex="1" parent="1">
          <mxGeometry x="326" y="140" width="40" height="20" as="geometry" />
        </mxCell>
        <mxCell id="GIKU6uKg89mEXkMf3qlI-8" value="e" style="text;html=1;strokeColor=none;fillColor=none;align=center;verticalAlign=middle;whiteSpace=wrap;rounded=0;" vertex="1" parent="1">
          <mxGeometry x="378" y="140" width="40" height="20" as="geometry" />
        </mxCell>
        <mxCell id="GIKU6uKg89mEXkMf3qlI-9" value="f" style="text;html=1;strokeColor=none;fillColor=none;align=center;verticalAlign=middle;whiteSpace=wrap;rounded=0;" vertex="1" parent="1">
          <mxGeometry x="430" y="140" width="40" height="20" as="geometry" />
        </mxCell>
        <mxCell id="GIKU6uKg89mEXkMf3qlI-10" value="0" style="text;html=1;strokeColor=none;fillColor=none;align=center;verticalAlign=middle;whiteSpace=wrap;rounded=0;" vertex="1" parent="1">
          <mxGeometry x="170" y="170" width="40" height="20" as="geometry" />
        </mxCell>
        <mxCell id="GIKU6uKg89mEXkMf3qlI-11" value="1" style="text;html=1;strokeColor=none;fillColor=none;align=center;verticalAlign=middle;whiteSpace=wrap;rounded=0;" vertex="1" parent="1">
          <mxGeometry x="222" y="170" width="40" height="20" as="geometry" />
        </mxCell>
        <mxCell id="GIKU6uKg89mEXkMf3qlI-12" value="2" style="text;html=1;strokeColor=none;fillColor=none;align=center;verticalAlign=middle;whiteSpace=wrap;rounded=0;" vertex="1" parent="1">
          <mxGeometry x="274" y="170" width="40" height="20" as="geometry" />
        </mxCell>
        <mxCell id="GIKU6uKg89mEXkMf3qlI-13" value="3" style="text;html=1;strokeColor=none;fillColor=none;align=center;verticalAlign=middle;whiteSpace=wrap;rounded=0;" vertex="1" parent="1">
          <mxGeometry x="326" y="170" width="40" height="20" as="geometry" />
        </mxCell>
        <mxCell id="GIKU6uKg89mEXkMf3qlI-14" value="4" style="text;html=1;strokeColor=none;fillColor=none;align=center;verticalAlign=middle;whiteSpace=wrap;rounded=0;" vertex="1" parent="1">
          <mxGeometry x="378" y="170" width="40" height="20" as="geometry" />
        </mxCell>
        <mxCell id="GIKU6uKg89mEXkMf3qlI-15" value="5" style="text;html=1;strokeColor=none;fillColor=none;align=center;verticalAlign=middle;whiteSpace=wrap;rounded=0;" vertex="1" parent="1">
          <mxGeometry x="430" y="170" width="40" height="20" as="geometry" />
        </mxCell>
        <mxCell id="GIKU6uKg89mEXkMf3qlI-22" value="lb=" style="text;html=1;strokeColor=none;fillColor=none;align=center;verticalAlign=middle;whiteSpace=wrap;rounded=0;" vertex="1" parent="1">
          <mxGeometry x="110" y="220" width="40" height="20" as="geometry" />
        </mxCell>
        <mxCell id="GIKU6uKg89mEXkMf3qlI-23" value="remainder=" style="text;html=1;strokeColor=none;fillColor=none;align=center;verticalAlign=middle;whiteSpace=wrap;rounded=0;" vertex="1" parent="1">
          <mxGeometry x="90" y="250" width="40" height="20" as="geometry" />
        </mxCell>
        <mxCell id="GIKU6uKg89mEXkMf3qlI-25" value="0" style="text;html=1;strokeColor=none;fillColor=none;align=center;verticalAlign=middle;whiteSpace=wrap;rounded=0;" vertex="1" parent="1">
          <mxGeometry x="170" y="220" width="40" height="20" as="geometry" />
        </mxCell>
        <mxCell id="GIKU6uKg89mEXkMf3qlI-26" value="0" style="text;html=1;strokeColor=none;fillColor=none;align=center;verticalAlign=middle;whiteSpace=wrap;rounded=0;" vertex="1" parent="1">
          <mxGeometry x="170" y="250" width="40" height="20" as="geometry" />
        </mxCell>
        <mxCell id="GIKU6uKg89mEXkMf3qlI-27" value="0" style="text;html=1;strokeColor=none;fillColor=none;align=center;verticalAlign=middle;whiteSpace=wrap;rounded=0;" vertex="1" parent="1">
          <mxGeometry x="222" y="220" width="40" height="20" as="geometry" />
        </mxCell>
        <mxCell id="GIKU6uKg89mEXkMf3qlI-28" value="1" style="text;html=1;strokeColor=none;fillColor=none;align=center;verticalAlign=middle;whiteSpace=wrap;rounded=0;" vertex="1" parent="1">
          <mxGeometry x="222" y="250" width="40" height="20" as="geometry" />
        </mxCell>
        <mxCell id="GIKU6uKg89mEXkMf3qlI-29" value="0" style="text;html=1;strokeColor=none;fillColor=none;align=center;verticalAlign=middle;whiteSpace=wrap;rounded=0;" vertex="1" parent="1">
          <mxGeometry x="274" y="220" width="40" height="20" as="geometry" />
        </mxCell>
        <mxCell id="GIKU6uKg89mEXkMf3qlI-30" value="2" style="text;html=1;strokeColor=none;fillColor=none;align=center;verticalAlign=middle;whiteSpace=wrap;rounded=0;" vertex="1" parent="1">
          <mxGeometry x="274" y="250" width="40" height="20" as="geometry" />
        </mxCell>
        <mxCell id="GIKU6uKg89mEXkMf3qlI-31" value="1" style="text;html=1;strokeColor=none;fillColor=none;align=center;verticalAlign=middle;whiteSpace=wrap;rounded=0;" vertex="1" parent="1">
          <mxGeometry x="326" y="220" width="40" height="20" as="geometry" />
        </mxCell>
        <mxCell id="GIKU6uKg89mEXkMf3qlI-32" value="0" style="text;html=1;strokeColor=none;fillColor=none;align=center;verticalAlign=middle;whiteSpace=wrap;rounded=0;" vertex="1" parent="1">
          <mxGeometry x="326" y="250" width="40" height="20" as="geometry" />
        </mxCell>
        <mxCell id="GIKU6uKg89mEXkMf3qlI-33" value="1" style="text;html=1;strokeColor=none;fillColor=none;align=center;verticalAlign=middle;whiteSpace=wrap;rounded=0;" vertex="1" parent="1">
          <mxGeometry x="378" y="220" width="40" height="20" as="geometry" />
        </mxCell>
        <mxCell id="GIKU6uKg89mEXkMf3qlI-34" value="1" style="text;html=1;strokeColor=none;fillColor=none;align=center;verticalAlign=middle;whiteSpace=wrap;rounded=0;" vertex="1" parent="1">
          <mxGeometry x="378" y="250" width="40" height="20" as="geometry" />
        </mxCell>
        <mxCell id="GIKU6uKg89mEXkMf3qlI-35" value="1" style="text;html=1;strokeColor=none;fillColor=none;align=center;verticalAlign=middle;whiteSpace=wrap;rounded=0;" vertex="1" parent="1">
          <mxGeometry x="430" y="220" width="40" height="20" as="geometry" />
        </mxCell>
        <mxCell id="GIKU6uKg89mEXkMf3qlI-36" value="2" style="text;html=1;strokeColor=none;fillColor=none;align=center;verticalAlign=middle;whiteSpace=wrap;rounded=0;" vertex="1" parent="1">
          <mxGeometry x="430" y="250" width="40" height="20" as="geometry" />
        </mxCell>
        <mxCell id="GIKU6uKg89mEXkMf3qlI-37" value="round_key=011" style="text;html=1;align=center;verticalAlign=middle;resizable=0;points=[];autosize=1;strokeColor=none;" vertex="1" parent="1">
          <mxGeometry x="418" y="440" width="90" height="20" as="geometry" />
        </mxCell>
        <mxCell id="GIKU6uKg89mEXkMf3qlI-38" value="" style="endArrow=classic;html=1;" edge="1" parent="1">
          <mxGeometry width="50" height="50" relative="1" as="geometry">
            <mxPoint x="320" y="280" as="sourcePoint" />
            <mxPoint x="320" y="320" as="targetPoint" />
          </mxGeometry>
        </mxCell>
        <mxCell id="GIKU6uKg89mEXkMf3qlI-45" value="rearrange" style="text;html=1;strokeColor=none;fillColor=none;align=center;verticalAlign=middle;whiteSpace=wrap;rounded=0;" vertex="1" parent="1">
          <mxGeometry x="240" y="290" width="74" height="20" as="geometry" />
        </mxCell>
        <mxCell id="GIKU6uKg89mEXkMf3qlI-48" value="lb" style="text;html=1;align=center;verticalAlign=middle;resizable=0;points=[];autosize=1;strokeColor=none;" vertex="1" parent="1">
          <mxGeometry x="100" y="340" width="20" height="20" as="geometry" />
        </mxCell>
        <mxCell id="GIKU6uKg89mEXkMf3qlI-49" value="remainder" style="text;html=1;strokeColor=none;fillColor=none;align=center;verticalAlign=middle;whiteSpace=wrap;rounded=0;" vertex="1" parent="1">
          <mxGeometry x="110" y="320" width="40" height="20" as="geometry" />
        </mxCell>
        <mxCell id="GIKU6uKg89mEXkMf3qlI-50" value="" style="endArrow=none;html=1;" edge="1" parent="1">
          <mxGeometry width="50" height="50" relative="1" as="geometry">
            <mxPoint x="160" y="360" as="sourcePoint" />
            <mxPoint x="90" y="330" as="targetPoint" />
          </mxGeometry>
        </mxCell>
        <mxCell id="GIKU6uKg89mEXkMf3qlI-51" value="0" style="text;html=1;strokeColor=none;fillColor=none;align=center;verticalAlign=middle;whiteSpace=wrap;rounded=0;" vertex="1" parent="1">
          <mxGeometry x="170" y="330" width="40" height="20" as="geometry" />
        </mxCell>
        <mxCell id="GIKU6uKg89mEXkMf3qlI-52" value="1" style="text;html=1;strokeColor=none;fillColor=none;align=center;verticalAlign=middle;whiteSpace=wrap;rounded=0;" vertex="1" parent="1">
          <mxGeometry x="260" y="330" width="40" height="20" as="geometry" />
        </mxCell>
        <mxCell id="GIKU6uKg89mEXkMf3qlI-53" value="2" style="text;html=1;strokeColor=none;fillColor=none;align=center;verticalAlign=middle;whiteSpace=wrap;rounded=0;" vertex="1" parent="1">
          <mxGeometry x="350" y="330" width="40" height="20" as="geometry" />
        </mxCell>
        <mxCell id="GIKU6uKg89mEXkMf3qlI-54" value="1" style="text;html=1;strokeColor=none;fillColor=none;align=center;verticalAlign=middle;whiteSpace=wrap;rounded=0;" vertex="1" parent="1">
          <mxGeometry x="100" y="370" width="40" height="20" as="geometry" />
        </mxCell>
        <mxCell id="GIKU6uKg89mEXkMf3qlI-55" value="0" style="text;html=1;strokeColor=none;fillColor=none;align=center;verticalAlign=middle;whiteSpace=wrap;rounded=0;" vertex="1" parent="1">
          <mxGeometry x="100" y="410" width="40" height="20" as="geometry" />
        </mxCell>
        <mxCell id="GIKU6uKg89mEXkMf3qlI-56" value="rb=round_key[remainder]" style="text;html=1;align=center;verticalAlign=middle;resizable=0;points=[];autosize=1;strokeColor=none;" vertex="1" parent="1">
          <mxGeometry x="18" y="450" width="150" height="20" as="geometry" />
        </mxCell>
        <mxCell id="GIKU6uKg89mEXkMf3qlI-57" value="3 (d)" style="text;html=1;strokeColor=none;fillColor=none;align=center;verticalAlign=middle;whiteSpace=wrap;rounded=0;" vertex="1" parent="1">
          <mxGeometry x="170" y="370" width="40" height="20" as="geometry" />
        </mxCell>
        <mxCell id="GIKU6uKg89mEXkMf3qlI-58" value="4&amp;nbsp; (e)" style="text;html=1;strokeColor=none;fillColor=none;align=center;verticalAlign=middle;whiteSpace=wrap;rounded=0;" vertex="1" parent="1">
          <mxGeometry x="260" y="370" width="40" height="20" as="geometry" />
        </mxCell>
        <mxCell id="GIKU6uKg89mEXkMf3qlI-59" value="5 (f)" style="text;html=1;strokeColor=none;fillColor=none;align=center;verticalAlign=middle;whiteSpace=wrap;rounded=0;" vertex="1" parent="1">
          <mxGeometry x="350" y="370" width="40" height="20" as="geometry" />
        </mxCell>
        <mxCell id="GIKU6uKg89mEXkMf3qlI-60" value="0 (a)" style="text;html=1;strokeColor=none;fillColor=none;align=center;verticalAlign=middle;whiteSpace=wrap;rounded=0;" vertex="1" parent="1">
          <mxGeometry x="170" y="410" width="40" height="20" as="geometry" />
        </mxCell>
        <mxCell id="GIKU6uKg89mEXkMf3qlI-61" value="1 (b)" style="text;html=1;strokeColor=none;fillColor=none;align=center;verticalAlign=middle;whiteSpace=wrap;rounded=0;" vertex="1" parent="1">
          <mxGeometry x="260" y="410" width="40" height="20" as="geometry" />
        </mxCell>
        <mxCell id="GIKU6uKg89mEXkMf3qlI-62" value="2 (c)" style="text;html=1;strokeColor=none;fillColor=none;align=center;verticalAlign=middle;whiteSpace=wrap;rounded=0;" vertex="1" parent="1">
          <mxGeometry x="350" y="410" width="40" height="20" as="geometry" />
        </mxCell>
        <mxCell id="GIKU6uKg89mEXkMf3qlI-63" value="0" style="text;html=1;strokeColor=none;fillColor=none;align=center;verticalAlign=middle;whiteSpace=wrap;rounded=0;" vertex="1" parent="1">
          <mxGeometry x="163" y="450" width="40" height="20" as="geometry" />
        </mxCell>
        <mxCell id="GIKU6uKg89mEXkMf3qlI-64" value="1" style="text;html=1;strokeColor=none;fillColor=none;align=center;verticalAlign=middle;whiteSpace=wrap;rounded=0;" vertex="1" parent="1">
          <mxGeometry x="260" y="450" width="40" height="20" as="geometry" />
        </mxCell>
        <mxCell id="GIKU6uKg89mEXkMf3qlI-65" value="1" style="text;html=1;strokeColor=none;fillColor=none;align=center;verticalAlign=middle;whiteSpace=wrap;rounded=0;" vertex="1" parent="1">
          <mxGeometry x="353" y="450" width="40" height="20" as="geometry" />
        </mxCell>
        <mxCell id="GIKU6uKg89mEXkMf3qlI-66" value="new position" style="text;html=1;strokeColor=none;fillColor=none;align=center;verticalAlign=middle;whiteSpace=wrap;rounded=0;" vertex="1" parent="1">
          <mxGeometry x="20" y="640" width="90" height="20" as="geometry" />
        </mxCell>
        <mxCell id="GIKU6uKg89mEXkMf3qlI-69" value="0 (a)" style="text;html=1;strokeColor=none;fillColor=none;align=center;verticalAlign=middle;whiteSpace=wrap;rounded=0;" vertex="1" parent="1">
          <mxGeometry x="150" y="560" width="40" height="20" as="geometry" />
        </mxCell>
        <mxCell id="GIKU6uKg89mEXkMf3qlI-70" value="1 (b)" style="text;html=1;strokeColor=none;fillColor=none;align=center;verticalAlign=middle;whiteSpace=wrap;rounded=0;" vertex="1" parent="1">
          <mxGeometry x="211" y="560" width="40" height="20" as="geometry" />
        </mxCell>
        <mxCell id="GIKU6uKg89mEXkMf3qlI-71" value="2 (c)" style="text;html=1;strokeColor=none;fillColor=none;align=center;verticalAlign=middle;whiteSpace=wrap;rounded=0;" vertex="1" parent="1">
          <mxGeometry x="272" y="560" width="40" height="20" as="geometry" />
        </mxCell>
        <mxCell id="GIKU6uKg89mEXkMf3qlI-72" value="3 (d)" style="text;html=1;strokeColor=none;fillColor=none;align=center;verticalAlign=middle;whiteSpace=wrap;rounded=0;" vertex="1" parent="1">
          <mxGeometry x="332" y="560" width="40" height="20" as="geometry" />
        </mxCell>
        <mxCell id="GIKU6uKg89mEXkMf3qlI-73" value="4&amp;nbsp; (e)" style="text;html=1;strokeColor=none;fillColor=none;align=center;verticalAlign=middle;whiteSpace=wrap;rounded=0;" vertex="1" parent="1">
          <mxGeometry x="393" y="560" width="40" height="20" as="geometry" />
        </mxCell>
        <mxCell id="GIKU6uKg89mEXkMf3qlI-74" value="5 (f)" style="text;html=1;strokeColor=none;fillColor=none;align=center;verticalAlign=middle;whiteSpace=wrap;rounded=0;" vertex="1" parent="1">
          <mxGeometry x="454" y="560" width="40" height="20" as="geometry" />
        </mxCell>
        <mxCell id="GIKU6uKg89mEXkMf3qlI-75" value="&lt;div&gt;0*2+0^0&lt;/div&gt;" style="text;html=1;strokeColor=none;fillColor=none;align=center;verticalAlign=middle;whiteSpace=wrap;rounded=0;" vertex="1" parent="1">
          <mxGeometry x="150" y="600" width="40" height="20" as="geometry" />
        </mxCell>
        <mxCell id="GIKU6uKg89mEXkMf3qlI-76" value="1*2+0^1" style="text;html=1;strokeColor=none;fillColor=none;align=center;verticalAlign=middle;whiteSpace=wrap;rounded=0;" vertex="1" parent="1">
          <mxGeometry x="211" y="600" width="40" height="20" as="geometry" />
        </mxCell>
        <mxCell id="GIKU6uKg89mEXkMf3qlI-77" value="2*2+0^1" style="text;html=1;strokeColor=none;fillColor=none;align=center;verticalAlign=middle;whiteSpace=wrap;rounded=0;" vertex="1" parent="1">
          <mxGeometry x="272" y="600" width="40" height="20" as="geometry" />
        </mxCell>
        <mxCell id="GIKU6uKg89mEXkMf3qlI-78" value="0*2+1^0" style="text;html=1;strokeColor=none;fillColor=none;align=center;verticalAlign=middle;whiteSpace=wrap;rounded=0;" vertex="1" parent="1">
          <mxGeometry x="332" y="600" width="40" height="20" as="geometry" />
        </mxCell>
        <mxCell id="GIKU6uKg89mEXkMf3qlI-79" value="1*2+1^1" style="text;html=1;strokeColor=none;fillColor=none;align=center;verticalAlign=middle;whiteSpace=wrap;rounded=0;" vertex="1" parent="1">
          <mxGeometry x="393" y="600" width="40" height="20" as="geometry" />
        </mxCell>
        <mxCell id="GIKU6uKg89mEXkMf3qlI-80" value="2*2+1^1" style="text;html=1;strokeColor=none;fillColor=none;align=center;verticalAlign=middle;whiteSpace=wrap;rounded=0;" vertex="1" parent="1">
          <mxGeometry x="454" y="600" width="40" height="20" as="geometry" />
        </mxCell>
        <mxCell id="GIKU6uKg89mEXkMf3qlI-100" style="edgeStyle=orthogonalEdgeStyle;rounded=0;orthogonalLoop=1;jettySize=auto;html=1;exitX=0.5;exitY=1;exitDx=0;exitDy=0;entryX=0.5;entryY=0;entryDx=0;entryDy=0;" edge="1" parent="1" source="GIKU6uKg89mEXkMf3qlI-81" target="GIKU6uKg89mEXkMf3qlI-94">
          <mxGeometry relative="1" as="geometry" />
        </mxCell>
        <mxCell id="GIKU6uKg89mEXkMf3qlI-81" value="0 (a)" style="text;html=1;strokeColor=none;fillColor=none;align=center;verticalAlign=middle;whiteSpace=wrap;rounded=0;" vertex="1" parent="1">
          <mxGeometry x="150" y="640" width="40" height="20" as="geometry" />
        </mxCell>
        <mxCell id="GIKU6uKg89mEXkMf3qlI-101" style="rounded=0;orthogonalLoop=1;jettySize=auto;html=1;exitX=0.5;exitY=1;exitDx=0;exitDy=0;entryX=0.5;entryY=0;entryDx=0;entryDy=0;" edge="1" parent="1" source="GIKU6uKg89mEXkMf3qlI-82" target="GIKU6uKg89mEXkMf3qlI-97">
          <mxGeometry relative="1" as="geometry" />
        </mxCell>
        <mxCell id="GIKU6uKg89mEXkMf3qlI-82" value="3 (b)" style="text;html=1;strokeColor=none;fillColor=none;align=center;verticalAlign=middle;whiteSpace=wrap;rounded=0;" vertex="1" parent="1">
          <mxGeometry x="211" y="640" width="40" height="20" as="geometry" />
        </mxCell>
        <mxCell id="GIKU6uKg89mEXkMf3qlI-102" style="edgeStyle=none;rounded=0;orthogonalLoop=1;jettySize=auto;html=1;exitX=0.5;exitY=1;exitDx=0;exitDy=0;entryX=0.5;entryY=0;entryDx=0;entryDy=0;" edge="1" parent="1" source="GIKU6uKg89mEXkMf3qlI-83" target="GIKU6uKg89mEXkMf3qlI-99">
          <mxGeometry relative="1" as="geometry" />
        </mxCell>
        <mxCell id="GIKU6uKg89mEXkMf3qlI-83" value="5(c)" style="text;html=1;strokeColor=none;fillColor=none;align=center;verticalAlign=middle;whiteSpace=wrap;rounded=0;" vertex="1" parent="1">
          <mxGeometry x="272" y="640" width="40" height="20" as="geometry" />
        </mxCell>
        <mxCell id="GIKU6uKg89mEXkMf3qlI-103" style="edgeStyle=none;rounded=0;orthogonalLoop=1;jettySize=auto;html=1;exitX=0.5;exitY=1;exitDx=0;exitDy=0;entryX=0.5;entryY=0;entryDx=0;entryDy=0;" edge="1" parent="1" source="GIKU6uKg89mEXkMf3qlI-84" target="GIKU6uKg89mEXkMf3qlI-95">
          <mxGeometry relative="1" as="geometry" />
        </mxCell>
        <mxCell id="GIKU6uKg89mEXkMf3qlI-84" value="1(d)" style="text;html=1;strokeColor=none;fillColor=none;align=center;verticalAlign=middle;whiteSpace=wrap;rounded=0;" vertex="1" parent="1">
          <mxGeometry x="332" y="640" width="40" height="20" as="geometry" />
        </mxCell>
        <mxCell id="GIKU6uKg89mEXkMf3qlI-104" style="edgeStyle=none;rounded=0;orthogonalLoop=1;jettySize=auto;html=1;exitX=0.5;exitY=1;exitDx=0;exitDy=0;entryX=0.5;entryY=0;entryDx=0;entryDy=0;" edge="1" parent="1" source="GIKU6uKg89mEXkMf3qlI-85" target="GIKU6uKg89mEXkMf3qlI-96">
          <mxGeometry relative="1" as="geometry" />
        </mxCell>
        <mxCell id="GIKU6uKg89mEXkMf3qlI-85" value="2&amp;nbsp; (e)" style="text;html=1;strokeColor=none;fillColor=none;align=center;verticalAlign=middle;whiteSpace=wrap;rounded=0;" vertex="1" parent="1">
          <mxGeometry x="393" y="640" width="40" height="20" as="geometry" />
        </mxCell>
        <mxCell id="GIKU6uKg89mEXkMf3qlI-105" style="edgeStyle=none;rounded=0;orthogonalLoop=1;jettySize=auto;html=1;exitX=0.5;exitY=1;exitDx=0;exitDy=0;entryX=0.5;entryY=0;entryDx=0;entryDy=0;" edge="1" parent="1" source="GIKU6uKg89mEXkMf3qlI-86" target="GIKU6uKg89mEXkMf3qlI-98">
          <mxGeometry relative="1" as="geometry" />
        </mxCell>
        <mxCell id="GIKU6uKg89mEXkMf3qlI-86" value="4 (f)" style="text;html=1;strokeColor=none;fillColor=none;align=center;verticalAlign=middle;whiteSpace=wrap;rounded=0;" vertex="1" parent="1">
          <mxGeometry x="454" y="640" width="40" height="20" as="geometry" />
        </mxCell>
        <mxCell id="GIKU6uKg89mEXkMf3qlI-87" value="shuffled list" style="text;html=1;align=center;verticalAlign=middle;resizable=0;points=[];autosize=1;strokeColor=none;" vertex="1" parent="1">
          <mxGeometry x="30" y="710" width="70" height="20" as="geometry" />
        </mxCell>
        <mxCell id="GIKU6uKg89mEXkMf3qlI-94" value="a" style="text;html=1;strokeColor=none;fillColor=none;align=center;verticalAlign=middle;whiteSpace=wrap;rounded=0;" vertex="1" parent="1">
          <mxGeometry x="150" y="700" width="40" height="20" as="geometry" />
        </mxCell>
        <mxCell id="GIKU6uKg89mEXkMf3qlI-95" value="d" style="text;html=1;strokeColor=none;fillColor=none;align=center;verticalAlign=middle;whiteSpace=wrap;rounded=0;" vertex="1" parent="1">
          <mxGeometry x="211" y="700" width="40" height="20" as="geometry" />
        </mxCell>
        <mxCell id="GIKU6uKg89mEXkMf3qlI-96" value="e" style="text;html=1;strokeColor=none;fillColor=none;align=center;verticalAlign=middle;whiteSpace=wrap;rounded=0;" vertex="1" parent="1">
          <mxGeometry x="272" y="700" width="40" height="20" as="geometry" />
        </mxCell>
        <mxCell id="GIKU6uKg89mEXkMf3qlI-97" value="b" style="text;html=1;strokeColor=none;fillColor=none;align=center;verticalAlign=middle;whiteSpace=wrap;rounded=0;" vertex="1" parent="1">
          <mxGeometry x="332" y="700" width="40" height="20" as="geometry" />
        </mxCell>
        <mxCell id="GIKU6uKg89mEXkMf3qlI-98" value="f" style="text;html=1;strokeColor=none;fillColor=none;align=center;verticalAlign=middle;whiteSpace=wrap;rounded=0;" vertex="1" parent="1">
          <mxGeometry x="393" y="700" width="40" height="20" as="geometry" />
        </mxCell>
        <mxCell id="GIKU6uKg89mEXkMf3qlI-99" value="c" style="text;html=1;strokeColor=none;fillColor=none;align=center;verticalAlign=middle;whiteSpace=wrap;rounded=0;" vertex="1" parent="1">
          <mxGeometry x="454" y="700" width="40" height="20" as="geometry" />
        </mxCell>
      </root>
    </mxGraphModel>
  </diagram>
</mxfile>
